# xmcd
#
# Track frame offsets:
#	150
#	57656
#	183794
#	204559
#	227684
#	247324
#	340379
#
# Disc length: 4792 seconds
#
# Revision: 1
# Processed by: cddbd v1.5.2PL0 Copyright (c) Steve Scherf et al.
# Submitted via: audiograbber 1.83.01
#
DISCID=6812b607
DTITLE=Klaus Schulze - Androgyn
DYEAR=2017
DGENRE=Electronic
TTITLE0=In The Dimness Of Light
TTITLE1=Back To The Future
TTITLE2=There's No Mystery
TTITLE3=Don't Ask The Question Why
TTITLE4=The Passion Burns
TTITLE5=This House Full Of Shadows
TTITLE6=A Tiny Violin [bonus track]
EXTD=
EXTT0=
EXTT1=
EXTT2=
EXTT3=
EXTT4=
EXTT5=
EXTT6=
PLAYORDER=
